<svg width="80" height="80" viewBox="0 0 80 80" fill="none" xmlns="http://www.w3.org/2000/svg">
<path d="M24.2008 20.3651C21.4407 20.0835 18.5038 20.1549 16.0126 21.5176C13.4134 22.9385 11.6334 25.7102 10.7017 28.4542C10.2196 29.8737 9.95734 31.376 9.93416 32.8755C9.90767 34.5649 10.2533 36.2113 10.6229 37.8517C10.9818 39.4478 11.3354 41.0664 11.2612 42.7127C11.2281 43.446 11.1076 44.2084 10.7758 44.8715C10.4593 45.5036 9.9037 45.8554 9.31963 46.2164C8.59583 46.664 7.97071 47.2221 7.2979 47.7398C6.60457 48.2734 5.88541 48.7752 5.14109 49.2347C3.6233 50.171 2.00089 50.9082 0.283116 51.3935C-0.213541 51.5337 -0.0022966 52.3079 0.496347 52.1671C3.54251 51.3062 6.24366 49.6652 8.67066 47.6644C9.2097 47.2201 9.81165 46.8934 10.3765 46.4875C10.9612 46.0676 11.3665 45.5691 11.6367 44.9C12.1923 43.5227 12.1353 41.9497 11.946 40.5044C11.7195 38.7773 11.2195 37.1032 10.9328 35.3867C10.6758 33.8508 10.6666 32.2785 10.9414 30.7439C11.4579 27.8551 12.9134 24.8784 15.2272 23.0026C17.7376 20.9675 21.1288 20.8551 24.2015 21.1678C24.7153 21.2201 24.7114 20.418 24.2015 20.3658L24.2008 20.3651Z" fill="#007CFF"/>
<path d="M11.0156 47.1818C11.9963 47.2837 12.8737 46.5722 12.975 45.593C13.077 44.6138 12.3645 43.7377 11.3837 43.6365C10.403 43.5347 9.52625 44.2461 9.42427 45.2254C9.32229 46.2046 10.0348 47.08 11.0156 47.1818Z" fill="#007CFF"/>
<path d="M11.15 46.385C11.252 50.5498 9.98052 54.6704 7.56213 58.0642C7.26149 58.4854 7.95813 58.8868 8.25547 58.4689C10.75 54.9692 12.0579 50.6781 11.9532 46.385C11.9407 45.8699 11.1374 45.8679 11.15 46.385Z" fill="#007CFF"/>
<path d="M10.8949 45.794C10.5353 50.0905 8.18848 54.1621 4.64963 56.6323C4.22913 56.9259 4.62976 57.6214 5.0549 57.3246C7.98981 55.2755 10.1619 52.2261 11.1539 48.7899C11.436 47.812 11.6134 46.8076 11.6982 45.7934C11.7412 45.279 10.938 45.2816 10.8949 45.7934V45.794Z" fill="#007CFF"/>
<path d="M10.3367 45.7709C8.19507 49.3459 5.51908 53.6747 0.951159 54.2156C0.443907 54.2758 0.437947 55.0785 0.951159 55.0176C5.85879 54.4371 8.70961 50.0494 11.03 46.1755C11.2962 45.7312 10.6015 45.3279 10.3367 45.7709Z" fill="#007CFF"/>
<path d="M10.5103 46.0844C9.71101 49.7064 7.42771 52.9383 4.31135 54.951C3.42068 55.5262 2.46975 56.0003 1.47047 56.3554C0.987058 56.5273 1.19499 57.3028 1.6837 57.1289C5.39141 55.8105 8.50115 52.9846 10.1964 49.4393C10.6765 48.4356 11.0447 47.3837 11.2844 46.298C11.3957 45.7948 10.6209 45.5799 10.5096 46.0851L10.5103 46.0844Z" fill="#007CFF"/>
<path d="M10.5102 46.9059C11.1254 49.103 10.5831 51.4456 9.46724 53.3915C8.32493 55.383 6.64557 56.9903 4.91124 58.4674C4.51722 58.8027 5.08805 59.368 5.47941 59.0347C7.32036 57.4677 9.10104 55.738 10.2718 53.5984C11.4148 51.5104 11.936 49.021 11.2843 46.6929C11.1453 46.1964 10.3698 46.4073 10.5096 46.9059H10.5102Z" fill="#007CFF"/>
<path d="M10.3136 45.767C8.0045 48.7906 4.87423 51.1894 1.35128 52.6348C0.879783 52.8285 1.08639 53.6048 1.56451 53.4084C5.30136 51.8757 8.55744 49.3798 11.007 46.1723C11.3202 45.7617 10.6229 45.3617 10.3136 45.7677V45.767Z" fill="#007CFF"/>
<path opacity="0.3" d="M11.0156 47.1818C11.9963 47.2837 12.8737 46.5722 12.975 45.593C13.077 44.6138 12.3645 43.7377 11.3837 43.6365C10.403 43.5347 9.52625 44.2461 9.42427 45.2254C9.32229 46.2046 10.0348 47.08 11.0156 47.1818Z" fill="black"/>
<path d="M1.40839 33.5687L0.505798 31.5362L17.8564 0L53.5686 2.05696L54.2269 3.82565L1.76929 33.5687" fill="url(#paint0_linear_384_666)"/>
<path d="M0.956665 33.5686L18.8317 2.05688L53.7758 3.82557L36.7061 35.3392L0.956665 33.5686Z" fill="url(#paint1_linear_384_666)"/>
<path d="M47.4951 21.5798C47.6599 21.8242 47.8187 22.2809 47.6737 23.1427C47.5257 24.0222 47.0796 25.1614 46.2463 26.492C44.5833 29.1476 41.6318 32.1598 37.7344 34.7796C33.8371 37.3994 29.9315 38.9966 26.8415 39.536C25.2933 39.8063 24.0683 39.7903 23.1965 39.5963C22.3422 39.4063 21.9782 39.0876 21.8134 38.8432C21.6486 38.5987 21.4898 38.1421 21.6348 37.2803C21.7828 36.4008 22.2289 35.2616 23.0622 33.9309C24.7252 31.2754 27.6767 28.2632 31.5741 25.6434C35.4714 23.0235 39.377 21.4264 42.4669 20.887C44.0152 20.6167 45.2402 20.6326 46.112 20.8266C46.9663 21.0167 47.3303 21.3354 47.4951 21.5798Z" fill="#101F23" stroke="url(#paint2_linear_384_666)" stroke-width="5"/>
<path d="M32.8885 18.4866V24.3956L49.5577 53.0054V47.097L32.8885 18.4866Z" fill="url(#paint3_linear_384_666)"/>
<path opacity="0.4" d="M32.8885 23.4052L49.5577 52.0156V50.5094L32.8885 21.899V23.4052Z" fill="#041423"/>
<path d="M66.2268 18.4866V24.3956L49.5577 53.0054V47.097L66.2268 18.4866Z" fill="url(#paint4_linear_384_666)"/>
<path opacity="0.4" d="M66.2268 23.4052L49.5577 52.0156V50.5094L66.2268 21.899V23.4052Z" fill="#041423"/>
<path d="M49.5577 51.9061L31.498 21.0569H19.7067L49.5584 72.4718V51.9061H49.5577Z" fill="url(#paint5_linear_384_666)"/>
<path d="M19.7059 28.5852L49.5576 80.0001V72.4717L19.7059 21.0569V28.5852Z" fill="url(#paint6_linear_384_666)"/>
<path d="M49.5577 72.4718L79.4094 21.0569H67.6181L49.5577 51.9054V72.4711V72.4718Z" fill="url(#paint7_linear_384_666)"/>
<path d="M79.4094 28.5852L49.5577 80.0001V72.4717L79.4094 21.0569V28.5852Z" fill="#00546F"/>
<path d="M32.8885 18.4866L49.5577 47.097V29.4908L43.0826 18.4866H32.8885Z" fill="url(#paint8_linear_384_666)"/>
<path d="M56.0328 18.4866L49.5577 29.4908V47.097L66.2268 18.4866H56.0328Z" fill="url(#paint9_linear_384_666)"/>
<path d="M20.8661 21.724H31.1144L48.8709 52.0548H49.5576V51.9061L31.4978 21.0569H19.7059L20.0933 21.724H20.8661Z" fill="url(#paint10_linear_384_666)"/>
<path d="M20.8662 21.7233H20.0934L49.5577 72.471L48.8896 69.9895L20.8662 21.7233Z" fill="url(#paint11_linear_384_666)"/>
<path d="M48.8709 52.0546L48.8895 52.0863V69.99L49.5576 72.4715V52.0546H48.8709Z" fill="url(#paint12_linear_384_666)"/>
<path d="M78.6366 21.0569H79.4094L49.5577 72.4718L50.2258 69.9903L78.6366 21.0569Z" fill="url(#paint13_linear_384_666)"/>
<path d="M50.2444 52.0546L50.2258 52.0863V69.99L49.5577 72.4715V52.0546H50.2444Z" fill="url(#paint14_linear_384_666)"/>
<path d="M79.4082 21.0631L79.4119 21.0568H79.4028C79.4028 21.0568 79.4064 21.0613 79.4082 21.0631Z" fill="url(#paint15_linear_384_666)"/>
<path d="M67.6181 21.0571L49.5577 51.9063V52.0551H50.2444L68.3479 21.0571H67.6181Z" fill="url(#paint16_linear_384_666)"/>
<path opacity="0.2" d="M37.5128 51.726V59.2543L45.3394 72.7346V65.2063L37.5128 51.726Z" fill="#35495E"/>
<path opacity="0.4" d="M45.9229 66.2112V73.7395L47.095 75.7575V68.2291L45.9229 66.2112Z" fill="#35495E"/>
<path opacity="0.4" d="M49.5577 72.4717L47.9141 69.6405V77.1688L49.5577 80V72.4717Z" fill="#35495E"/>
<path opacity="0.6" d="M22.8799 26.5228V34.0511L26.6969 40.6254V33.097L22.8799 26.5228Z" fill="#EFFDCD"/>
<path opacity="0.6" d="M27.1672 33.9069V41.4352L28.6055 43.9127V36.3843L27.1672 33.9069Z" fill="#EFFDCD"/>
<path opacity="0.3" d="M20.8662 21.7233H31.1146L41.055 38.7026L30.4378 22.6377L20.8662 21.7233Z" fill="#EFFDCD"/>
<path opacity="0.6" d="M50.2258 69.99L50.2443 52.0546L50.6661 67.6203L60.6893 51.9686L50.2258 69.99Z" fill="#EFFDCD"/>
<path opacity="0.4" d="M56.0328 18.4866H66.2268L49.5577 47.097L65.5514 18.7649H55.8692L56.0328 18.4866Z" fill="url(#paint17_linear_384_666)"/>
<path opacity="0.1" d="M32.8885 18.4866H43.0833L49.5577 29.4908V47.097L49.0743 29.5351L42.8727 18.8463L32.8885 18.4866Z" fill="url(#paint18_linear_384_666)"/>
<path d="M44.7626 21.4964C37.8838 20.8895 29.2516 27.8188 25.7954 31.3594L24.7838 37.429L20.4846 29.8421L27.0599 22.761L34.1409 19.9792L42.4865 17.7031L44.7626 21.4964Z" fill="black" fill-opacity="0.2"/>
<path d="M29.0206 21.7053C36.9989 16.3431 45.101 14.7238 47.8499 17.9584L43.6402 11.923C43.5515 11.7207 43.4462 11.527 43.3223 11.3432C40.8497 7.67553 32.2284 9.14932 24.0666 14.6352C16.5472 19.6894 12.0409 26.3859 13.313 30.277C13.4216 30.6089 13.5719 30.921 13.7666 31.2093C13.9236 31.4414 14.105 31.653 14.309 31.8447L19.547 40.0871C19.5437 40.0818 18.7391 38.7945 18.5014 38.4421C16.0287 34.7744 20.7827 27.2428 29.0206 21.706V21.7053Z" fill="url(#paint19_linear_384_666)"/>
<path d="M49.3583 20.0705C49.3583 20.0705 48.3392 18.643 48.1008 18.2899C48.0226 18.1742 47.9392 18.0637 47.8491 17.9586L49.2874 20.0202C49.3113 20.0367 49.3351 20.0533 49.3583 20.0705Z" fill="#007CFF"/>
<path d="M30.4191 23.7807C37.8113 18.8118 45.9816 17.6646 49.2881 20.0205L47.8497 17.9589C45.1002 14.7243 36.9981 16.3429 29.0205 21.7058C20.7826 27.2433 16.0286 34.7743 18.5013 38.4419C18.739 38.7943 19.5436 40.0817 19.5469 40.0869C18.5251 36.1601 22.9745 28.7845 30.4197 23.7807H30.4191Z" fill="url(#paint20_linear_384_666)"/>
<path opacity="0.1" d="M40.7933 10.7485C40.4867 10.4093 33.8904 9.49558 26.6035 14.5087C26.6035 14.5087 26.22 22.002 35.0407 19.6515C39.2748 18.5228 41.8482 17.8173 43.3786 17.3882C44.5758 17.0523 45.0559 15.6275 44.3196 14.6264C42.923 12.7281 40.7933 10.7479 40.7933 10.7479V10.7485Z" fill="white"/>
<defs>
<linearGradient id="paint0_linear_384_666" x1="26.0483" y1="-1.26448" x2="3.79346" y2="33.3823" gradientUnits="userSpaceOnUse">
<stop stop-color="#3ED592"/>
<stop offset="1" stop-color="#0B9055"/>
</linearGradient>
<linearGradient id="paint1_linear_384_666" x1="27.3662" y1="2.05689" x2="11.886" y2="33.3824" gradientUnits="userSpaceOnUse">
<stop stop-color="#101F23"/>
<stop offset="1" stop-color="#000304"/>
</linearGradient>
<linearGradient id="paint2_linear_384_666" x1="30.1764" y1="23.5705" x2="39.1131" y2="36.8652" gradientUnits="userSpaceOnUse">
<stop stop-opacity="0"/>
<stop offset="1" stop-color="#5C8692"/>
</linearGradient>
<linearGradient id="paint3_linear_384_666" x1="32.0052" y1="20.4192" x2="48.4582" y2="47.8599" gradientUnits="userSpaceOnUse">
<stop stop-color="#0A356B"/>
<stop offset="0.52" stop-color="#00546F"/>
<stop offset="1" stop-color="#07393F"/>
</linearGradient>
<linearGradient id="paint4_linear_384_666" x1="65.7507" y1="21.7886" x2="49.8684" y2="50.0846" gradientUnits="userSpaceOnUse">
<stop offset="0.5" stop-color="#428690"/>
<stop offset="1" stop-color="#0A5980"/>
</linearGradient>
<linearGradient id="paint5_linear_384_666" x1="21.4403" y1="15.001" x2="54.8294" y2="70.7352" gradientUnits="userSpaceOnUse">
<stop stop-color="#038F7F"/>
<stop offset="0.5" stop-color="#1ADCC4"/>
<stop offset="1" stop-color="#2ED385"/>
</linearGradient>
<linearGradient id="paint6_linear_384_666" x1="19.098" y1="24.3185" x2="49.9177" y2="76.4792" gradientUnits="userSpaceOnUse">
<stop stop-color="#EEFFC9"/>
<stop offset="0.53" stop-color="#22C986"/>
<stop offset="1" stop-color="#01587A"/>
</linearGradient>
<linearGradient id="paint7_linear_384_666" x1="72.8787" y1="20.9418" x2="50.6485" y2="62.2182" gradientUnits="userSpaceOnUse">
<stop stop-color="#D5FFBA"/>
<stop offset="0.5" stop-color="#B8FFCC"/>
<stop offset="1" stop-color="#85F793"/>
</linearGradient>
<linearGradient id="paint8_linear_384_666" x1="51.4211" y1="42.4475" x2="38.6733" y2="19.3018" gradientUnits="userSpaceOnUse">
<stop stop-color="#1580AA"/>
<stop offset="1" stop-color="#0A5980"/>
</linearGradient>
<linearGradient id="paint9_linear_384_666" x1="63.2701" y1="17.1807" x2="47.9837" y2="40.0327" gradientUnits="userSpaceOnUse">
<stop stop-color="#1580AA"/>
<stop offset="1" stop-color="#0A5980"/>
</linearGradient>
<linearGradient id="paint10_linear_384_666" x1="26.6915" y1="22.7581" x2="45.9441" y2="52.238" gradientUnits="userSpaceOnUse">
<stop stop-color="#068882"/>
<stop offset="0.5" stop-color="#2AE3C1"/>
<stop offset="1" stop-color="#A1FEC6"/>
</linearGradient>
<linearGradient id="paint11_linear_384_666" x1="20.496" y1="22.6767" x2="46.8829" y2="66.5998" gradientUnits="userSpaceOnUse">
<stop stop-color="#00787D"/>
<stop offset="0.5" stop-color="#0CBFA3"/>
<stop offset="1" stop-color="#37DA87"/>
</linearGradient>
<linearGradient id="paint12_linear_384_666" x1="45.0195" y1="54.7317" x2="53.0492" y2="68.098" gradientUnits="userSpaceOnUse">
<stop stop-color="#ADFEC8"/>
<stop offset="1" stop-color="#31D885"/>
</linearGradient>
<linearGradient id="paint13_linear_384_666" x1="79.0055" y1="22.0249" x2="52.2717" y2="66.5257" gradientUnits="userSpaceOnUse">
<stop stop-color="#F5FFD9"/>
<stop offset="1" stop-color="#37DA87"/>
</linearGradient>
<linearGradient id="paint14_linear_384_666" x1="54.0958" y1="54.7317" x2="46.0661" y2="68.098" gradientUnits="userSpaceOnUse">
<stop stop-color="#ADFEC8"/>
<stop offset="1" stop-color="#31D885"/>
</linearGradient>
<linearGradient id="paint15_linear_384_666" x1="79.4064" y1="21.0559" x2="79.4101" y2="21.0613" gradientUnits="userSpaceOnUse">
<stop stop-color="#068882"/>
<stop offset="0.5" stop-color="#2AE3C1"/>
<stop offset="1" stop-color="#A1FEC6"/>
</linearGradient>
<linearGradient id="paint16_linear_384_666" x1="55.5566" y1="31.3717" x2="63.0499" y2="42.8453" gradientUnits="userSpaceOnUse">
<stop stop-color="#068882"/>
<stop offset="0.5" stop-color="#2AE3C1"/>
<stop offset="1" stop-color="#A1FEC6"/>
</linearGradient>
<linearGradient id="paint17_linear_384_666" x1="60.9272" y1="19.1418" x2="54.5911" y2="46.3026" gradientUnits="userSpaceOnUse">
<stop stop-color="#F5FFD9"/>
<stop offset="1" stop-color="#37DA87"/>
</linearGradient>
<linearGradient id="paint18_linear_384_666" x1="44.1435" y1="20.3115" x2="38.8606" y2="42.9602" gradientUnits="userSpaceOnUse">
<stop stop-color="#F5FFD9"/>
<stop offset="1" stop-color="#37DA87"/>
</linearGradient>
<linearGradient id="paint19_linear_384_666" x1="41.9809" y1="10.8744" x2="15.1739" y2="34.1409" gradientUnits="userSpaceOnUse">
<stop stop-color="#2C383C"/>
<stop offset="1" stop-color="#112024"/>
</linearGradient>
<linearGradient id="paint20_linear_384_666" x1="33.5673" y1="16.2985" x2="18.7142" y2="37.6818" gradientUnits="userSpaceOnUse">
<stop stop-color="#3DD491"/>
<stop offset="1" stop-color="#0A8F54"/>
</linearGradient>
</defs>
</svg>
