<svg xmlns="http://www.w3.org/2000/svg" width="32" height="32" viewBox="0 0 24 24">
  <!-- Top left square -->
  <path
    fill="none"
    stroke="#41B883"
    stroke-width="2"
    d="M4 5a1 1 0 0 1 1-1h4a1 1 0 0 1 1 1v5a1 1 0 0 1-1 1H5a1 1 0 0 1-1-1z"
  />
  <!-- Top right square -->
  <path
    fill="none"
    stroke="#41B883"
    stroke-width="2"
    d="M14 5a1 1 0 0 1 1-1h4a1 1 0 0 1 1 1v2a1 1 0 0 1-1 1h-4a1 1 0 0 1-1-1z"
  />
  <!-- Bottom left square -->
  <path
    fill="none"
    stroke="#41B883"
    stroke-width="2"
    d="M4 16a1 1 0 0 1 1-1h4a1 1 0 0 1 1 1v3a1 1 0 0 1-1 1H5a1 1 0 0 1-1-1z"
  />
  <!-- Bottom right square -->
  <path
    fill="none"
    stroke="#41B883"
    stroke-width="2"
    d="M14 13a1 1 0 0 1 1-1h4a1 1 0 0 1 1 1v6a1 1 0 0 1-1 1h-4a1 1 0 0 1-1-1z"
  />
</svg>
