<svg viewBox="0 0 24 24" fill="none" xmlns="http://www.w3.org/2000/svg">
<path d="M0 0H14.0974L14.9087 0.0524998C15.7049 0.107143 16.4527 0.171429 17.1232 0.274286C18.361 0.48 19.5301 0.891428 20.5616 1.50857C21.6619 2.12571 22.4871 2.94857 23.106 3.97714C23.5186 4.66286 23.7937 5.41714 23.9312 6.30857L23.9656 6.89143C23.9828 7.23429 24 7.68 24 8.09143L23.9954 8.47337C23.98 9.13368 23.9312 9.66857 23.9312 9.66857C23.7937 10.9029 23.3811 12 22.5559 12.96C21.3868 14.3314 17.8797 15.4286 17.6734 15.4286L18.4269 16.485C20.6392 19.565 22.4159 21.8415 23.7568 23.3145C24.0688 23.6571 24.0688 24 23.5186 24H15.4728L5.70774 10.4914H15.8854C17.2607 10.4914 18.361 9.39429 18.361 7.95429C18.361 6.51429 17.192 5.41714 15.8854 5.41714H2.06304L0 2.67429V1.34057L14.4413 0.685714H0V0Z" fill="url(#paint0_linear_7_11)"/>
<defs>
<linearGradient id="paint0_linear_7_11" x1="0.201583" y1="-0.0384081" x2="21.0672" y2="28.776" gradientUnits="userSpaceOnUse">
<stop stop-color="#04CC3C"/>
<stop offset="1" stop-color="#0062BC"/>
</linearGradient>
</defs>
</svg>
