<svg xmlns="http://www.w3.org/2000/svg" viewBox="0 0 25 40" fill="#7c3aed">
  <path fill-rule="evenodd" clip-rule="evenodd" d="M4.043 15.0334L8.03101 16.6142H10.7377L11.713 0.106103C11.7195 -0.00249147 11.5724 -0.0417968 11.5238 0.0555237L4.043 15.0334ZM2.55847 23.2515H0.100129C0.0258101 23.2515 -0.0225409 23.1733 0.0106666 23.1068L2.30586 18.5114L4.69286 17.9483L2.55847 21.1927V23.2515ZM17.4689 29.2273L10.9293 39.2178C10.8699 39.3085 10.7288 39.2531 10.747 39.1462L13.4481 23.2515H4.44864V21.8287H4.46887L6.90673 17.9375L8.42408 18.9076H13.5137L15.031 17.9375L17.4689 21.8287V29.2273ZM20.0244 17.8162H24.7534C24.8329 17.8162 24.8806 17.9044 24.8371 17.9709L19.3793 26.3088V21.1927L17.2449 17.9483L19.3793 18.595L20.0244 17.8162Z"/>
</svg>